<svg width="39" height="34" viewBox="0 0 39 34" fill="none" xmlns="http://www.w3.org/2000/svg">
<path fill-rule="evenodd" clip-rule="evenodd" d="M0 4.8C0 3.52696 0.505713 2.30606 1.40589 1.40589C2.30606 0.505713 3.52696 0 4.8 0H33.6C34.873 0 36.0939 0.505713 36.9941 1.40589C37.8943 2.30606 38.4 3.52696 38.4 4.8V9.6C38.4 10.873 37.8943 12.0939 36.9941 12.9941C36.0939 13.8943 34.873 14.4 33.6 14.4H4.8C3.52696 14.4 2.30606 13.8943 1.40589 12.9941C0.505713 12.0939 0 10.873 0 9.6V4.8ZM33.6 7.2C33.6 7.83652 33.3471 8.44697 32.8971 8.89706C32.447 9.34714 31.8365 9.6 31.2 9.6C30.5635 9.6 29.953 9.34714 29.5029 8.89706C29.0529 8.44697 28.8 7.83652 28.8 7.2C28.8 6.56348 29.0529 5.95303 29.5029 5.50294C29.953 5.05286 30.5635 4.8 31.2 4.8C31.8365 4.8 32.447 5.05286 32.8971 5.50294C33.3471 5.95303 33.6 6.56348 33.6 7.2ZM0 24C0 22.727 0.505713 21.5061 1.40589 20.6059C2.30606 19.7057 3.52696 19.2 4.8 19.2H33.6C34.873 19.2 36.0939 19.7057 36.9941 20.6059C37.8943 21.5061 38.4 22.727 38.4 24V28.8C38.4 30.073 37.8943 31.2939 36.9941 32.1941C36.0939 33.0943 34.873 33.6 33.6 33.6H4.8C3.52696 33.6 2.30606 33.0943 1.40589 32.1941C0.505713 31.2939 0 30.073 0 28.8V24ZM33.6 26.4C33.6 27.0365 33.3471 27.647 32.8971 28.0971C32.447 28.5471 31.8365 28.8 31.2 28.8C30.5635 28.8 29.953 28.5471 29.5029 28.0971C29.0529 27.647 28.8 27.0365 28.8 26.4C28.8 25.7635 29.0529 25.153 29.5029 24.7029C29.953 24.2529 30.5635 24 31.2 24C31.8365 24 32.447 24.2529 32.8971 24.7029C33.3471 25.153 33.6 25.7635 33.6 26.4Z" fill="#7E3AF2"/>
</svg>
