<svg width="128" height="44" viewBox="0 0 128 44" fill="none" xmlns="http://www.w3.org/2000/svg">
<path d="M16.4352 34.016C21.255 34.016 24.8869 32.4391 27.73 29.4761C30.6568 26.5461 31.5654 22.444 31.5654 19.1255C31.5654 18.095 31.4864 17.1502 31.3284 16.3568H16.4352V20.7815H27.0222C26.7062 23.2704 25.8733 25.0876 24.6143 26.3518C23.0709 27.8893 20.6637 29.5913 16.4352 29.5913C9.9177 29.5913 4.82041 24.337 4.82041 17.8185C4.82041 11.3 9.9177 6.04237 16.4352 6.04237C19.9486 6.04237 22.5208 7.42838 24.4138 9.20616L27.5358 6.08517C24.8869 3.56007 21.3735 1.62097 16.4352 1.62097C7.50518 1.62097 0 8.88682 0 17.8185C0 26.7469 7.50518 34.016 16.4352 34.016ZM43.6181 34.016C49.3827 34.016 54.084 29.5913 54.084 23.5831C54.084 17.542 49.3827 13.1568 43.6181 13.1568C37.8436 13.1568 33.1424 17.542 33.1424 23.5831C33.1424 29.5913 37.8436 34.016 43.6181 34.016ZM43.6181 29.9074C40.4543 29.9074 37.7251 27.3 37.7251 23.5831C37.7251 19.8333 40.4543 17.2687 43.6181 17.2687C46.7753 17.2687 49.5012 19.8333 49.5012 23.5831C49.5012 27.3 46.7753 29.9074 43.6181 29.9074ZM66.4494 34.016C72.2173 34.016 76.9185 29.5913 76.9185 23.5831C76.9185 17.542 72.2173 13.1568 66.4494 13.1568C60.6782 13.1568 55.977 17.542 55.977 23.5831C55.977 29.5913 60.6782 34.016 66.4494 34.016ZM66.4494 29.9074C63.2889 29.9074 60.5597 27.3 60.5597 23.5831C60.5597 19.8333 63.2889 17.2687 66.4494 17.2687C69.6099 17.2687 72.3358 19.8333 72.3358 23.5831C72.3358 27.3 69.6099 29.9074 66.4494 29.9074ZM88.8889 43.379C94.2584 43.379 98.8082 40.2218 98.8082 32.5148V13.7889H94.4593V15.4876H94.3012C93.2708 14.2629 91.2955 13.1568 88.8132 13.1568C83.5951 13.1568 78.8181 17.7395 78.8181 23.6259C78.8181 29.4761 83.5951 34.016 88.8132 34.016C91.2955 34.016 93.2708 32.9099 94.3012 31.6457H94.4593V33.1469C94.4593 37.1403 92.3259 39.2704 88.8889 39.2704C86.0872 39.2704 84.3457 37.2588 83.6313 35.5535L79.6445 37.216C80.7934 39.9848 83.8321 43.379 88.8889 43.379ZM89.2017 29.9074C86.0444 29.9074 83.3942 27.2638 83.3942 23.6259C83.3942 19.9518 86.0444 17.2687 89.2017 17.2687C92.3259 17.2687 94.7753 19.9518 94.7753 23.6259C94.7753 27.2638 92.3259 29.9074 89.2017 29.9074ZM106.548 2.72714H101.965V33.3839H106.548V2.72714ZM119.111 34.016C123.888 34.016 126.657 31.0959 127.802 29.3938L124.244 27.0267C123.062 28.7584 121.442 29.9074 119.111 29.9074C116.78 29.9074 115.118 28.8407 114.054 26.7469L128 20.9757L127.526 19.7938C126.657 17.4629 124.007 13.1568 118.598 13.1568C113.225 13.1568 108.76 17.3872 108.76 23.5831C108.76 29.4333 113.185 34.016 119.111 34.016ZM113.304 23.2704C113.185 19.244 116.425 17.1864 118.756 17.1864C120.573 17.1864 122.114 18.095 122.63 19.3988L113.304 23.2704Z" fill="#6B7280"/>
</svg>
